<?xml version="1.0" standalone="no"?>
<!DOCTYPE svg PUBLIC "-//W3C//DTD SVG 20010904//EN"
 "http://www.w3.org/TR/2001/REC-SVG-20010904/DTD/svg10.dtd">
<svg version="1.0" xmlns="http://www.w3.org/2000/svg"
 width="260.000000pt" height="260.000000pt" viewBox="0 0 260.000000 260.000000"
 preserveAspectRatio="xMidYMid meet">
<metadata>
Created by potrace 1.14, written by Peter Selinger 2001-2017
</metadata>
<g transform="translate(0.000000,260.000000) scale(0.100000,-0.100000)"
fill="#000000" stroke="none">
<path d="M0 1300 l0 -1300 1300 0 1300 0 0 1052 c0 910 -2 1049 -14 1032 -8
-10 -18 -16 -22 -11 -4 4 -2 7 4 7 7 0 12 7 12 15 0 8 4 15 8 15 5 0 9 111 11
246 l3 246 -317 -4 c-291 -3 -318 -5 -330 -21 -8 -11 -16 -14 -19 -8 -4 6 -13
8 -21 4 -8 -3 -15 0 -15 7 0 6 3 9 8 7 4 -3 16 -1 27 4 11 4 -420 8 -957 8
l-978 1 0 -1300z m2200 1280 c0 -5 -2 -10 -4 -10 -3 0 -8 5 -11 10 -3 6 -1 10
4 10 6 0 11 -4 11 -10z m139 -51 c28 -16 38 -25 27 -27 -9 -2 -23 3 -31 11 -8
9 -37 23 -65 32 -27 9 -50 21 -50 25 0 11 61 -10 119 -41z m163 -164 c21 -32
41 -69 44 -82 4 -13 10 -23 14 -23 4 0 10 -8 13 -17 2 -10 8 -27 12 -38 6 -16
3 -15 -14 5 -24 28 -65 110 -62 124 1 4 -10 19 -24 32 -14 12 -25 27 -25 32 0
6 -13 24 -30 42 -16 18 -30 36 -30 41 0 16 62 -55 102 -116z m-812 62 c0 -2
-10 -12 -22 -23 l-23 -19 19 23 c18 21 26 27 26 19z m-90 -81 c0 -2 -8 -10
-17 -17 -16 -13 -17 -12 -4 4 13 16 21 21 21 13z m427 -12 c-3 -3 -12 -4 -19
-1 -8 3 -5 6 6 6 11 1 17 -2 13 -5z m-598 -41 c17 -10 33 -24 36 -30 7 -21
-30 -15 -50 7 -10 12 -24 19 -31 16 -8 -3 -11 1 -7 10 7 18 15 18 52 -3z m288
-19 c-3 -3 -12 -4 -19 -1 -8 3 -5 6 6 6 11 1 17 -2 13 -5z m-361 -36 c-11 -15
-16 -18 -16 -7 0 16 21 42 28 34 2 -2 -3 -14 -12 -27z m1139 -8 c3 -5 14 -10
25 -10 10 0 21 -7 24 -16 5 -14 4 -15 -9 -4 -8 7 -21 10 -28 7 -7 -3 -19 4
-25 14 -7 10 -8 19 -3 19 6 0 13 -4 16 -10z m-1021 -14 c-3 -8 -13 -17 -22
-21 -13 -5 -13 -2 3 15 21 24 26 25 19 6z m100 -18 c-10 -5 -30 -15 -44 -23
-24 -14 -22 -15 40 -15 45 0 79 -7 110 -22 25 -11 53 -23 62 -24 34 -7 131
-77 139 -102 2 -6 27 -35 55 -64 95 -100 158 -214 185 -338 19 -87 20 -482 1
-560 -16 -67 -69 -234 -86 -275 -36 -83 -90 -195 -92 -192 -2 2 21 66 51 142
30 76 62 170 71 209 9 39 23 94 30 121 22 80 36 243 29 330 -10 116 -42 286
-63 331 -31 69 -120 198 -169 246 -96 94 -223 130 -330 94 -39 -13 -44 -13
-29 -1 10 8 44 19 75 25 96 18 102 20 97 29 -12 18 -98 31 -164 25 -65 -6 -69
-8 -119 -61 -61 -63 -70 -61 -16 5 32 40 34 45 15 40 -31 -9 -27 10 6 24 15 7
42 23 60 36 17 14 32 21 32 18 0 -4 12 0 27 8 16 8 32 12 37 8 5 -3 1 -9 -10
-14z m-413 -12 c41 -13 91 -31 111 -40 l37 -16 11 41 c6 23 13 39 15 37 8 -8
-18 -90 -30 -95 -7 -2 -30 4 -52 15 -74 38 -224 64 -258 44 -13 -7 -9 -13 23
-34 41 -28 65 -71 33 -61 -13 4 -14 3 -1 -5 8 -5 67 -18 130 -27 63 -10 121
-24 129 -31 10 -9 3 -11 -35 -7 -27 2 -70 9 -95 14 -25 6 -89 11 -142 12 -53
1 -97 5 -97 10 0 38 -132 67 -164 36 -6 -5 -18 -9 -28 -9 -11 0 -35 -8 -56
-19 -20 -10 -42 -16 -48 -14 -6 2 -17 -3 -24 -12 -7 -8 -20 -15 -30 -15 -27 0
-105 -85 -148 -159 -46 -81 -75 -151 -103 -256 -38 -141 -35 -500 5 -544 9
-10 16 -32 16 -49 0 -17 7 -38 16 -47 9 -9 18 -33 21 -53 7 -62 11 -77 33
-100 11 -12 16 -22 10 -22 -6 0 8 -27 30 -60 22 -33 45 -60 49 -60 5 0 14 -13
20 -30 6 -18 17 -30 28 -30 13 0 14 -3 5 -8 -10 -7 -9 -16 3 -45 8 -20 14 -37
12 -37 -8 0 -176 258 -202 310 -33 66 -39 84 -71 220 -20 88 -24 130 -24 270
0 146 3 178 26 264 68 265 186 445 349 531 21 12 166 62 250 88 75 23 160 21
246 -7z m1399 -150 c0 -8 -7 -17 -16 -20 -13 -5 -14 -4 -6 7 7 8 9 17 5 20 -3
4 -1 7 5 7 7 0 12 -6 12 -14z m-1057 -3 c-17 -6 -16 -23 0 -23 19 0 50 -36 43
-49 -4 -6 -12 -8 -19 -6 -7 2 -29 6 -49 8 -21 3 -52 14 -70 26 l-33 22 35 -6
c28 -5 42 -2 60 14 14 11 30 20 35 20 6 0 4 -3 -2 -6z m1004 -50 c-9 -10 -29
-26 -46 -36 -28 -16 -31 -16 -31 -2 0 10 -5 13 -12 9 -7 -4 -8 -3 -4 5 6 9 11
9 22 0 14 -12 25 -7 62 29 20 18 27 14 9 -5z m-1347 -43 c36 -11 81 -20 101
-20 47 0 99 -18 99 -35 0 -32 -120 -42 -157 -13 -6 5 -33 11 -60 13 -75 5
-153 25 -153 39 0 40 69 47 170 16z m1247 5 c8 -9 13 -19 10 -22 -3 -3 -13 2
-22 11 -20 20 -29 21 -22 1 4 -8 2 -17 -2 -20 -9 -5 -21 17 -21 36 0 15 40 10
57 -6z m-287 -5 c0 -5 -5 -10 -11 -10 -5 0 -7 5 -4 10 3 6 8 10 11 10 2 0 4
-4 4 -10z m151 -11 c11 -11 27 -18 35 -15 8 3 14 0 14 -5 0 -7 -9 -9 -22 -5
-13 4 -33 8 -46 10 -12 2 -26 7 -30 11 -4 5 1 5 12 1 14 -5 17 -2 12 9 -8 21
0 19 25 -6z m75 -26 c-10 -10 -19 5 -10 18 6 11 8 11 12 0 2 -7 1 -15 -2 -18z
m-1231 -33 c3 -5 1 -10 -4 -10 -6 0 -11 5 -11 10 0 6 2 10 4 10 3 0 8 -4 11
-10z m668 -48 c12 -10 23 -22 24 -27 1 -6 5 -18 9 -28 6 -15 3 -18 -17 -15
-25 3 -65 60 -54 78 9 14 13 13 38 -8z m-333 -123 c23 -54 7 -176 -21 -167
-17 6 -48 87 -48 126 -2 71 45 99 69 41z m-535 11 c4 -6 16 -8 28 -4 19 6 20
5 8 -10 -12 -14 -11 -16 3 -16 16 0 22 -21 10 -33 -4 -3 -8 -24 -9 -46 -2 -23
-9 -46 -17 -53 -16 -16 -58 -21 -58 -8 0 6 -11 10 -23 10 -45 0 -71 50 -56
105 8 28 16 37 40 42 16 3 32 10 35 14 7 12 31 11 39 -1z m-227 -1325 c-2 -3
-21 17 -42 43 l-38 47 42 -43 c23 -24 40 -45 38 -47z m1142 1 c0 -2 -8 -10
-17 -17 -16 -13 -17 -12 -4 4 13 16 21 21 21 13z"/>
</g>
</svg>
